<?xml version="1.0" standalone="no"?>
<!DOCTYPE svg PUBLIC "-//W3C//DTD SVG 20010904//EN"
 "http://www.w3.org/TR/2001/REC-SVG-20010904/DTD/svg10.dtd">
<svg version="1.0" xmlns="http://www.w3.org/2000/svg"
 width="700.000000pt" height="700.000000pt" viewBox="0 0 700.000000 700.000000"
 preserveAspectRatio="xMidYMid meet">
<metadata>
Created by potrace 1.11, written by Peter Selinger 2001-2013
</metadata>
<g transform="translate(0.000000,700.000000) scale(0.100000,-0.100000)"
fill="#000000" stroke="none">
<path d="M663 6486 c-50 -23 -55 -43 -56 -218 l0 -158 -263 0 c-145 0 -274 -4
-288 -10 -60 -22 -56 76 -54 -1609 l3 -1541 28 -27 27 -28 848 -2 c466 0 852
-2 859 -2 9 -1 12 -179 12 -776 l-1 -775 -766 1 c-422 0 -808 0 -859 -1 -88 0
-93 -1 -122 -30 l-30 -31 -1 -342 c0 -224 3 -354 10 -374 24 -68 -285 -63
3495 -63 3167 0 3419 1 3445 17 16 9 33 27 39 40 8 17 11 474 11 1569 l0 1546
-29 29 c-18 17 -41 30 -58 30 -15 1 -66 3 -113 4 -47 1 -90 3 -96 4 -9 1 -12
200 -12 766 l1 765 107 0 c124 0 165 11 185 51 22 41 22 696 1 738 -25 48 -46
51 -330 51 l-263 0 1 151 c1 99 -3 162 -11 181 -25 59 -14 59 -783 56 l-700
-3 -27 -28 c-30 -30 -28 -2 -33 -324 l0 -33 -1340 0 c-1269 0 -1340 1 -1340
18 -1 9 -2 83 -3 164 -2 147 -2 148 -30 175 l-27 28 -703 2 c-582 2 -707 0
-734 -11z m1292 -185 c6 0 10 -39 10 -93 l0 -93 -583 -3 -582 -2 0 97 0 98
573 -1 c314 -1 577 -2 582 -3z m4243 -93 l3 -98 -581 0 c-457 0 -580 3 -581
13 -5 49 -3 173 3 177 3 3 264 5 580 5 l573 0 3 -97z m603 -296 c4 -2 5 -425
0 -442 0 -3 -1368 -5 -3040 -5 -3317 0 -3076 4 -3102 -58 -10 -23 -13 -229
-13 -891 -1 -473 2 -877 6 -896 6 -30 49 -80 67 -78 3 0 1374 0 3046 -1 l3041
-1 -1 -1422 0 -1423 -475 0 -475 0 -2 227 -1 227 214 0 c225 0 242 3 271 47
15 24 17 100 17 922 0 841 -1 899 -18 924 -10 15 -32 32 -49 37 -21 7 -1029
10 -3027 10 -1647 0 -3011 0 -3030 1 l-36 0 0 1408 c0 774 3 1410 8 1413 7 4
6582 5 6599 1z m-5023 -1406 c1 -707 -1 -764 -16 -768 -9 -2 -219 -4 -467 -3
l-450 0 -3 768 -2 767 469 0 469 0 0 -764z m1179 -3 l-2 -768 -490 0 -490 0
-2 768 -2 767 494 0 493 0 -1 -767z m1180 0 l-2 -768 -490 0 -490 0 -1 760
c-1 418 0 763 3 768 2 4 224 7 493 7 l489 0 -2 -767z m1180 0 l-2 -768 -480
-1 c-264 0 -485 1 -492 4 -9 3 -12 189 -11 768 l0 764 493 0 494 0 -2 -767z
m1180 0 l-2 -768 -490 0 -490 0 -1 768 -1 767 493 0 494 0 -3 -767z m-349
-1612 c9 -1 12 -163 12 -776 l0 -774 -154 0 -154 1 -1 604 c-1 657 1 636 -57
662 -32 15 -1959 17 -1998 2 -14 -5 -33 -21 -43 -37 -17 -25 -18 -66 -18 -628
l0 -600 -882 -2 -882 -1 0 771 c0 424 4 774 9 777 6 4 4113 5 4168 1z m-488
-563 l0 -98 -865 0 -865 0 0 98 0 97 865 0 865 0 0 -97z m-5 -393 l0 -100
-862 -2 -863 -2 0 102 0 103 863 0 862 -1 0 -100z m2 -399 l-2 -101 -862 -1
-863 -1 0 103 0 102 864 0 864 0 -1 -102z m0 -398 l-2 -103 -862 0 -863 0 0
102 0 103 864 0 864 0 -1 -102z m-1926 -1 c1 -7 2 -107 3 -224 1 -181 -1 -212
-14 -215 -8 -2 -805 -4 -1770 -3 l-1755 0 -1 220 c0 121 1 223 3 227 2 4 798
7 1768 7 1337 -1 1765 -3 1766 -12z m1925 -369 l-1 -73 -862 0 -863 0 0 72 0
73 864 0 864 0 -2 -72z"/>
<path d="M2125 2396 c-54 -24 -56 -35 -53 -343 l3 -283 28 -27 27 -28 709 0
c762 0 746 -1 770 52 7 16 11 117 11 294 0 293 -3 314 -55 337 -39 18 -1398
16 -1440 -2z m1291 -185 c8 -1 12 -47 12 -151 l1 -150 -50 0 c-27 -1 -267 -1
-534 -1 -267 0 -507 0 -534 1 l-49 0 0 148 c1 81 2 149 3 152 3 4 1114 5 1151
1z"/>
</g>
</svg>
